<svg xmlns="http://www.w3.org/2000/svg" viewBox="0 0 1000 1000"><defs><style>.cls-1{isolation:isolate;}.cls-16,.cls-2{fill:#cf83b7;}.cls-2{opacity:0.25;}.cls-10,.cls-3{fill:#c1d1ec;}.cls-4{fill:#dee7f5;}.cls-5{fill:#8197cd;}.cls-6{fill:#99b3dd;}.cls-18,.cls-7{fill:#f37268;}.cls-8{fill:#e8625e;}.cls-9{fill:#525eaa;}.cls-10,.cls-18{mix-blend-mode:multiply;}.cls-11{fill:#f59391;}.cls-12{fill:#1d1952;}.cls-13,.cls-15{fill:#ee7f7f;}.cls-14{fill:#daeef6;}.cls-15{opacity:0.6;}.cls-17{fill:#fff;}.cls-18{opacity:0.3;}.cls-19{fill:#ededee;}</style></defs><title>people</title><g class="cls-1"><g id="Layer_2" data-name="Layer 2"><path class="cls-2" d="M140.06,49.26s25.95-50,189.59,0S634,123.45,682.19,104.1,874.8,18.61,905.82,91.19,632.69,271.32,754.12,516.74s282.5,372.84,184.22,418S442,738.6,281.86,747.47-11.55,714,28.77,657.45s303-191.18,228.13-365S36.84,149.26,140.06,49.26Z"/></g><g id="Layer_1" data-name="Layer 1"><path class="cls-3" d="M471.29,682.91,362.64,726.54l-134.5-334.9L320,354.75a18.13,18.13,0,0,1,23.56,10.06Z"/><rect class="cls-3" x="248.48" y="394.09" width="211.29" height="297.07" transform="translate(-89.28 70.15) rotate(-10.05)"/><rect class="cls-3" x="286.23" y="425.41" width="94.35" height="2.12" transform="translate(-69.32 64.74) rotate(-10.05)"/><rect class="cls-3" x="265.47" y="420.12" width="134" height="2.12" transform="translate(-68.41 64.5) rotate(-10.05)"/><rect class="cls-3" x="256" y="447.31" width="162.57" height="2.12" transform="matrix(0.98, -0.17, 0.17, 0.98, -73.09, 65.76)"/><rect class="cls-3" x="257.78" y="457.34" width="162.57" height="2.12" transform="translate(-74.81 66.22) rotate(-10.05)"/><rect class="cls-3" x="261.34" y="477.41" width="162.57" height="2.12" transform="translate(-78.26 67.15) rotate(-10.05)"/><rect class="cls-3" x="263.12" y="487.44" width="162.57" height="2.12" transform="translate(-79.98 67.62) rotate(-10.05)"/><rect class="cls-3" x="264.89" y="497.47" width="162.57" height="2.12" transform="translate(-81.71 68.08) rotate(-10.05)"/><rect class="cls-3" x="272.72" y="541.59" width="162.57" height="2.12" transform="translate(-89.29 70.12) rotate(-10.05)"/><rect class="cls-3" x="274.56" y="552" width="162.57" height="2.12" transform="translate(-91.08 70.61) rotate(-10.05)"/><rect class="cls-3" x="276.41" y="562.4" width="162.57" height="2.12" transform="translate(-92.86 71.08) rotate(-10.05)"/><rect class="cls-3" x="278.25" y="572.8" width="162.57" height="2.12" transform="translate(-94.65 71.57) rotate(-10.05)"/><rect class="cls-3" x="280.09" y="583.2" width="162.57" height="2.12" transform="translate(-96.44 72.05) rotate(-10.05)"/><rect class="cls-3" x="281.94" y="593.6" width="162.57" height="2.12" transform="translate(-98.23 72.53) rotate(-10.05)"/><rect class="cls-3" x="283.78" y="604.01" width="162.57" height="2.12" transform="translate(-100.01 73.01) rotate(-10.05)"/><rect class="cls-4" x="232.23" y="392.63" width="211.29" height="297.07" transform="matrix(0.97, -0.25, 0.25, 0.97, -126.6, 103.81)"/><rect class="cls-5" x="260.55" y="426.03" width="94.35" height="2.12" transform="translate(-98.56 92.38) rotate(-14.74)"/><rect class="cls-5" x="239.36" y="420.83" width="134" height="2.12" transform="translate(-97.29 91.86) rotate(-14.74)"/><rect class="cls-5" x="232.1" y="447.54" width="162.57" height="2.12" transform="translate(-103.85 94.53) rotate(-14.74)"/><rect class="cls-5" x="234.69" y="457.39" width="162.57" height="2.12" transform="matrix(0.97, -0.25, 0.25, 0.97, -106.27, 95.51)"/><rect class="cls-5" x="239.88" y="477.09" width="162.57" height="2.12" transform="matrix(0.97, -0.25, 0.25, 0.97, -111.12, 97.48)"/><rect class="cls-5" x="242.47" y="486.95" width="162.57" height="2.12" transform="translate(-113.54 98.47) rotate(-14.74)"/><rect class="cls-5" x="245.06" y="496.8" width="162.57" height="2.12" transform="matrix(0.97, -0.25, 0.25, 0.97, -115.96, 99.45)"/><rect class="cls-5" x="256.47" y="540.13" width="162.57" height="2.12" transform="translate(-126.62 103.78) rotate(-14.74)"/><rect class="cls-5" x="259.16" y="550.35" width="162.57" height="2.12" transform="translate(-129.13 104.8) rotate(-14.74)"/><rect class="cls-5" x="261.85" y="560.57" width="162.57" height="2.12" transform="translate(-131.64 105.82) rotate(-14.74)"/><rect class="cls-5" x="264.53" y="570.78" width="162.57" height="2.12" transform="translate(-134.15 106.84) rotate(-14.74)"/><rect class="cls-5" x="267.22" y="581" width="162.57" height="2.12" transform="translate(-136.66 107.86) rotate(-14.74)"/><rect class="cls-5" x="269.91" y="591.22" width="162.57" height="2.12" transform="translate(-139.18 108.89) rotate(-14.74)"/><rect class="cls-5" x="272.6" y="601.43" width="162.57" height="2.12" transform="translate(-141.69 109.91) rotate(-14.74)"/><path class="cls-6" d="M430.06,699.46,211.32,787.32,83.73,469.63,267.55,356.24A19.57,19.57,0,0,1,296,365.6Z"/><path class="cls-7" d="M140.73,735.91l-31.21-.57c-10.83-19.64-18.78-36.71-18.78-36.71,35.24-8.12,65-4.79,89.77,4.74l13.65,33.17L197.09,711c61.41,33.14,86.72,103.3,86.72,103.3S175.27,802.74,152.26,792c-8.89-4.13-20.08-19-30.48-35.7C130.1,748.42,140.73,735.91,140.73,735.91Z"/><path class="cls-8" d="M90.74,698.63S230.09,757.27,283.81,814.3c0,0-108.54-11.56-131.55-22.26-8.89-4.13-20.08-19-30.48-35.7,8.32-7.92,18.95-20.43,18.95-20.43l-31.21-.57C98.69,715.7,90.74,698.63,90.74,698.63Z"/><path class="cls-7" d="M95.18,792.36a143.08,143.08,0,0,1,56-20c5.37,6.68,12,14.53,12,14.53l.69-15.65c70.29-3.2,128.53,43.89,128.53,43.89C251.67,840.81,217,847.88,188.5,845.59c-1.68-5.47-4.07-13.64-4.07-13.64l-5,12.57a122.69,122.69,0,0,1-36.06-11.58c2.66-6.53,5.47-14,5.47-14l-15.15,8.6C108.27,812,95.18,792.36,95.18,792.36Z"/><path class="cls-8" d="M188.5,845.59c-1.68-5.47-4.07-13.64-4.07-13.64l-5,12.57a122.69,122.69,0,0,1-36.06-11.58c2.66-6.53,5.47-14,5.47-14l-15.15,8.6c-25.39-15.52-38.48-35.2-38.48-35.2,81.9-9.46,197.2,22.79,197.2,22.79C251.67,840.81,217,847.88,188.5,845.59Z"/><path class="cls-6" d="M505.31,370.14l25.16-18.48c-2.49-22.29-5.85-40.82-5.85-40.82-33.47,13.71-55.84,33.61-70.58,55.69l8,35-17.13-19.17c-31,62.51-11.19,134.41-11.19,134.41s82-72.09,94.58-94.11c4.87-8.5,5.43-27.11,4.28-46.74C521.21,374.22,505.31,370.14,505.31,370.14Z"/><path class="cls-5" d="M524.62,310.84s-79.95,128.33-90.9,205.9c0,0,82-72.09,94.58-94.11,4.87-8.5,5.43-27.11,4.28-46.74-11.37-1.67-27.27-5.75-27.27-5.75l25.16-18.48C528,329.37,524.62,310.84,524.62,310.84Z"/><path class="cls-6" d="M575.09,390a143.14,143.14,0,0,0-57.28,16c-.53,8.55-1.38,18.77-1.38,18.77l-9.6-12.38c-59.24,38-79.62,110-79.62,110,48.05-2.54,80.5-16.81,102.4-35.1-1.78-5.44-4.55-13.49-4.55-13.49l11.36,7.37a122.54,122.54,0,0,0,22.76-30.28c-5.94-3.79-12.53-8.26-12.53-8.26L564,440.9C575.76,413.58,575.09,390,575.09,390Z"/><path class="cls-5" d="M529.61,487.28c-1.78-5.44-4.55-13.49-4.55-13.49l11.36,7.37a122.54,122.54,0,0,0,22.76-30.28c-5.94-3.79-12.53-8.26-12.53-8.26L564,440.9c11.77-27.32,11.1-50.95,11.1-50.95-72.34,39.54-147.88,132.43-147.88,132.43C475.26,519.84,507.71,505.57,529.61,487.28Z"/><path class="cls-9" d="M766.42,481.3H781a15.17,15.17,0,0,0-8.62-2.61H406.69c-19.13,0-34.64,13.75-34.64,30.71v19.5c0,17,15.51,30.71,34.64,30.71l361.61-.11Z"/><path class="cls-4" d="M403.49,530.14v-20c0-17.38,15.89-31.47,35.5-31.47h-8.05c-19.61,0-35.5,14.09-35.5,31.47v20c0,17.38,15.89,31.47,35.5,31.47h7.94C419.32,561.56,403.49,547.49,403.49,530.14Z"/><path class="cls-4" d="M491.25,530.14v-20c0-17.38,15.9-31.47,35.5-31.47h-8c-19.6,0-35.5,14.09-35.5,31.47v20c0,17.38,15.9,31.47,35.5,31.47h7.95C507.09,561.56,491.25,547.49,491.25,530.14Z"/><path class="cls-5" d="M563.43,478.76c-18.75,0-33.95,13.47-33.95,30.1v22.58c0,16.62,15.2,30.1,33.95,30.1H796.71v-5h-1l-59.31-5-12-41.69s23.13-23,24.64-23.63,46.65-2.39,46.65-2.39h1v-5Z"/><path class="cls-4" d="M781.58,520c0-24.37,14.21-36.19,14.21-36.19H568.2C551,483.81,537,496.19,537,511.46v17.38c0,15.27,14,27.65,31.18,27.65H795.79S781.58,550.69,781.58,520Z"/><path class="cls-10" d="M537,511.46v17.38a24.68,24.68,0,0,0,.91,6.63c7.68-16.64,22.39-32.68,50.39-37.84,65.39-12,207.47-13.82,207.47-13.82H568.2C551,483.81,537,496.19,537,511.46Z"/><path class="cls-5" d="M770,647.11h16.93a16.58,16.58,0,0,0-10-3.35H352.79c-22.19,0-40.18,17.64-40.18,39.39v25c0,21.76,18,39.39,40.18,39.39l419.4-.14Z"/><path class="cls-9" d="M529.21,643.86c-21.22,0-38.42,16.86-38.42,37.67V709.8c0,20.8,17.2,37.67,38.42,37.67h264v-6.32h-1.09L725,734.91l-13.57-52.17s26.18-28.84,27.89-29.58,52.8-3,52.8-3h1.09v-6.29Z"/><path class="cls-4" d="M776.13,695.48c0-30.51,16.08-45.3,16.08-45.3H534.62c-19.49,0-35.29,15.49-35.29,34.6v21.77c0,19.1,15.8,34.6,35.29,34.6H792.21S776.13,733.89,776.13,695.48Z"/><path class="cls-10" d="M499.33,684.78v21.77a33.86,33.86,0,0,0,1,8.29c8.68-20.83,25.34-40.9,57-47.36,74-15.07,234.82-17.3,234.82-17.3H534.62C515.13,650.18,499.33,665.67,499.33,684.78Z"/><path class="cls-7" d="M298.64,564.06H281.7a19.53,19.53,0,0,1,10-2.66H716c22.2,0,40.2,14,40.2,31.26v19.85c0,17.26-18,31.25-40.2,31.25l-419.56-.11Z"/><path class="cls-8" d="M539.52,561.48c21.23,0,38.44,13.38,38.44,29.89V613.8c0,16.51-17.21,29.89-38.44,29.89H275.38v-5h1.09l67.15-4.94,13.58-41.41s-26.2-22.87-27.91-23.46-52.82-2.38-52.82-2.38h-1.09v-5Z"/><path class="cls-4" d="M292.51,602.44c0-24.21-16.08-36-16.08-36H534.11c19.5,0,35.31,12.3,35.31,27.46v17.27c0,15.16-15.81,27.45-35.31,27.45H276.43S292.51,632.92,292.51,602.44Z"/><path class="cls-10" d="M569.42,594v17.27a21.66,21.66,0,0,1-1,6.58c-8.69-16.53-25.35-32.46-57.06-37.58-74-12-234.9-13.73-234.9-13.73H534.11C553.61,566.49,569.42,578.79,569.42,594Z"/><path class="cls-8" d="M678.48,612.51V592.66c0-17.26-18-31.26-40.2-31.26h40.29c22.2,0,40.2,14,40.2,31.26v19.85c0,17.26-18,31.25-40.2,31.25H638.81C660.77,643.53,678.48,629.63,678.48,612.51Z"/><path class="cls-9" d="M266.6,750.74H248.34a20.55,20.55,0,0,1,10.79-3H716.54c23.93,0,43.33,15.64,43.33,34.93v22.18c0,19.28-19.4,34.92-43.33,34.92l-452.29-.13Z"/><path class="cls-5" d="M526.28,747.86c22.89,0,41.44,14.95,41.44,33.39v25.07c0,18.44-18.55,33.4-41.44,33.4H241.53v-5.61h1.18l72.39-5.53,14.63-46.25s-28.24-25.57-30.08-26.23-56.94-2.66-56.94-2.66h-1.18v-5.57Z"/><path class="cls-4" d="M260,793.62c0-27-17.34-40.16-17.34-40.16H520.45c21,0,38.06,13.74,38.06,30.68v19.29c0,17-17,30.68-38.06,30.68H242.66S260,827.68,260,793.62Z"/><path class="cls-10" d="M558.51,784.14v19.29a25.13,25.13,0,0,1-1.11,7.36c-9.37-18.47-27.32-36.27-61.51-42-79.8-13.36-253.23-15.34-253.23-15.34H520.45C541.47,753.46,558.51,767.2,558.51,784.14Z"/><path class="cls-5" d="M132.08,839.16H902a4.86,4.86,0,0,1,4.86,4.86v.42a4.86,4.86,0,0,1-4.86,4.86h-770a4.87,4.87,0,0,1-4.87-4.87V844a4.86,4.86,0,0,1,4.86-4.86Z"/><polygon class="cls-3" points="122.49 504.71 271.42 419.52 291.55 459.4 139.16 540.02 122.49 504.71"/><path class="cls-6" d="M403.14,262.07s-1.17,11.58-10.31,12.38c9.14.8,10.31,12.38,10.31,12.38s1.18-11.58,10.32-12.38C404.32,273.65,403.14,262.07,403.14,262.07Z"/><path class="cls-3" d="M245.22,173.09s-1.57,15.42-13.74,16.49c12.17,1.07,13.74,16.5,13.74,16.5s1.56-15.43,13.74-16.5C246.78,188.51,245.22,173.09,245.22,173.09Z"/><path class="cls-7" d="M181.43,311.08s-1.05,10.36-9.22,11.07c8.17.72,9.22,11.08,9.22,11.08s1-10.36,9.23-11.08C182.48,321.44,181.43,311.08,181.43,311.08Z"/><path class="cls-7" d="M905.82,558.26s-1.56,15.43-13.74,16.49c12.18,1.07,13.74,16.5,13.74,16.5s1.57-15.43,13.74-16.5C907.39,573.69,905.82,558.26,905.82,558.26Z"/><path class="cls-6" d="M42.51,422.41S41,437.84,28.77,438.91C41,440,42.51,455.4,42.51,455.4S44.08,440,56.25,438.91C44.08,437.84,42.51,422.41,42.51,422.41Z"/><path class="cls-6" d="M938.34,405.92s-1.56,15.43-13.74,16.49c12.18,1.07,13.74,16.5,13.74,16.5s1.57-15.43,13.74-16.5C939.91,421.35,938.34,405.92,938.34,405.92Z"/><path class="cls-7" d="M558.51,163.6S557,179,544.77,180.09c12.18,1.07,13.74,16.5,13.74,16.5s1.57-15.43,13.74-16.5C560.08,179,558.51,163.6,558.51,163.6Z"/><path class="cls-3" d="M819.34,292.44s-.85,9.74-7.47,10.42c6.62.67,7.47,10.41,7.47,10.41s.85-9.74,7.47-10.41C820.19,302.18,819.34,292.44,819.34,292.44Z"/><path class="cls-11" d="M285.09,767.22l-20.56,1-2.6,61-10.52,5.07.51,2.22,3.91.92,13-.21c.38,0,3-2.88,3-2.88l-.39-.5,2.1-1.43Z"/><path class="cls-11" d="M340.79,834.32s-10.27-5.16-10.52-5.07l2.32-62.11-25.49.08,11.55,65.22,1.26.86c-.31,1.08-.57,2-.63,2.32-.16.81,4.35.87,5.92,1.14s6.14.76,9.07,1.57,6.62-1.57,6.62-1.57Z"/><path class="cls-12" d="M341.48,599.56c-3-7.72-5.86-4.66-11.22-14a20.75,20.75,0,0,1-1.89-5.18,26.17,26.17,0,0,0-8.19-13.68,28.94,28.94,0,0,0-26.77-6s3.69,21,4.39,25.21c-3.14,4.27-6.3,8.63-6.3,8.63s-6.61,34.47,3.76,37.38,12.26-1.76,17.33-4.19,10,4.2,17.58-.41c5.78-3.53,2.85-12.32,5.9-14S344.68,607.89,341.48,599.56Z"/><path class="cls-12" d="M288,578.06c-.18-.08-4.94-2.76-9.39-5.27L306.3,542s-8.39-1.63-8.9-1.69S284.88,544,284.88,544l-12.4,3.35c-9.45,34.51-21.23,40.76-21.23,40.76a13.46,13.46,0,0,0-4.13,4.41c-4.69,7.59.06,12.34,2.76,14.53s-1.82,10.28,3.21,14.82c6.58,5.93,12.67.33,17.2,3.66s5.51,8.26,16.25,7.33,10.63-36,10.63-36S288.38,578.22,288,578.06Z"/><path class="cls-7" d="M335,641s9.13,43.57,6.48,48.28-37.39,6.18-37.39,6.18L302.6,639.5l13.25-20Z"/><path class="cls-12" d="M324,691.41l-6.49-17.79s-21.36-7.78-22.72-7.88-19.45,7.88-19.45,7.88-5.53,11.19-6.61,13.2c-.59,1.12.79,8,2.14,13.85l-7.67.36-5.09,112.46s11,5.94,22.92.85l9.76-98.23,8.48-1.27L312,812.22s10.18,7.64,24.61,1.27L327,705.12A53.8,53.8,0,0,0,324,691.41Z"/><path class="cls-11" d="M282.41,606.25s9.48-2,27.11-.74-8.15,11.19-8.15,11.19-9.06-.3-9.44-.37S282.41,606.25,282.41,606.25Z"/><rect class="cls-11" x="289.18" y="596.29" width="15.66" height="27.48"/><path class="cls-13" d="M304.81,601v-9.37H289.18v8C292.55,601.39,297.53,602.43,304.81,601Z"/><path class="cls-11" d="M326.74,565.7a5.29,5.29,0,0,0-4.8.19,25.55,25.55,0,1,0-51.1,0,5.31,5.31,0,0,0-4.81-.19c-2.87,1.41-3.76,5.47-2,9.06s5.53,5.35,8.41,3.94a5,5,0,0,0,1.07-.74c1.65,11.7,11.41,20.48,22.87,20.31,11.45.17,21.22-8.61,22.86-20.31a5,5,0,0,0,1.08.74c2.87,1.41,6.64-.35,8.41-3.94S329.62,567.11,326.74,565.7Z"/><path class="cls-12" d="M289.93,570.92a2.15,2.15,0,1,1-2.26-2A2.14,2.14,0,0,1,289.93,570.92Z"/><path class="cls-12" d="M308.44,571.12a2.15,2.15,0,1,1-2.26-2A2.14,2.14,0,0,1,308.44,571.12Z"/><path class="cls-12" d="M292.29,566.51a20.44,20.44,0,0,0-3.12-.84,10.92,10.92,0,0,0-3-.13,10.07,10.07,0,0,0-2.9.74l-.36.14-.35.17-.72.35c-.48.24-.93.55-1.47.79a10.24,10.24,0,0,1,1-1.4,7.57,7.57,0,0,1,1.32-1.13A7.11,7.11,0,0,1,286,564a7.46,7.46,0,0,1,3.51.51A6.69,6.69,0,0,1,292.29,566.51Z"/><path class="cls-12" d="M301,566.48a6.7,6.7,0,0,1,2.76-2,7.3,7.3,0,0,1,3.5-.54,7.06,7.06,0,0,1,3.34,1.2,7.18,7.18,0,0,1,1.33,1.12,9.65,9.65,0,0,1,1,1.39c-.54-.24-1-.54-1.47-.78l-.73-.34c-.12,0-.23-.13-.35-.17l-.37-.14a9.93,9.93,0,0,0-2.9-.71,10.55,10.55,0,0,0-3,.14A20.53,20.53,0,0,0,301,566.48Z"/><path class="cls-13" d="M297.45,568a12,12,0,0,0,.18,3.38,9.07,9.07,0,0,0,.48,1.67,4.43,4.43,0,0,0,1,1.58c.58.44.83.57,1,1a1.53,1.53,0,0,1-.09,1.23,4.68,4.68,0,0,1-2.33,2,3.8,3.8,0,0,0,3.06-1.58,2.29,2.29,0,0,0,.32-2A2.56,2.56,0,0,0,300,573.9a3.65,3.65,0,0,1-.91-1.29,15,15,0,0,1-.6-1.47C298.09,570.11,297.79,569.05,297.45,568Z"/><path class="cls-13" d="M290.4,581.46a13.8,13.8,0,0,0,1.85,1.09,14.15,14.15,0,0,0,2,.85,12.83,12.83,0,0,0,4.14.76,11.2,11.2,0,0,0,4.12-.81,15.35,15.35,0,0,0,3.64-2.23,13.87,13.87,0,0,1-1.61,1.45,12.23,12.23,0,0,1-1.87,1.13,10.46,10.46,0,0,1-2.08.72,10.48,10.48,0,0,1-6.48-.66A12.49,12.49,0,0,1,290.4,581.46Z"/><path class="cls-6" d="M327.45,611.74c-8.48-8.23-20.21-6.49-20.21-6.49a18.9,18.9,0,0,1-3.92,3,16.12,16.12,0,0,1-6.79,1.83h-.28a16.12,16.12,0,0,1-6.79-1.83,18.94,18.94,0,0,1-3.93-3s-11.72-1.74-20.21,6.49-17,26.4-17,26.4,10.72,9.78,21,11c0,0,5,23,6,24.45a53.53,53.53,0,0,0,12.64,3.68,43.35,43.35,0,0,0,8,.75h.95a43.53,43.53,0,0,0,8-.75,53.53,53.53,0,0,0,12.63-3.68c1-1.5,6-24.45,6-24.45,10.23-1.25,21-11,21-11S335.94,620,327.45,611.74Z"/><path class="cls-7" d="M297.3,667.43s3.15-.52,4.89,1.79l-.12,6-3.85,1.8s-4.77-4.06-4.41-4.17S297.3,667.43,297.3,667.43Z"/><polygon class="cls-7" points="307.11 706.37 256.37 721.04 251.45 683.9 302.19 669.22 307.11 706.37"/><polygon class="cls-4" points="252.18 715.07 256.64 718.83 305.2 704.91 300.84 669.9 297.41 668.47 252.18 715.07"/><polygon class="cls-10" points="305.2 704.91 301.74 701.9 295.4 694.94 295.79 675.79 297.41 668.47 300.85 669.85 305.2 704.91"/><polygon class="cls-7" points="301.74 701.9 251 716.58 246.56 682.11 297.3 667.43 301.74 701.9"/><path class="cls-14" d="M276.84,629.25a46.43,46.43,0,0,0-3.24,4.46,34.23,34.23,0,0,0-2.58,4.81,23,23,0,0,0-1.57,5.19,18.81,18.81,0,0,0-.13,5.46,13.5,13.5,0,0,1-.55-5.55,18.66,18.66,0,0,1,1.46-5.44,24.13,24.13,0,0,1,2.81-4.85A22.63,22.63,0,0,1,276.84,629.25Z"/><path class="cls-11" d="M266.31,691.9c-8.93-15.13-4.8-33.53-1.27-43.7-7-2.26-13.51-7.37-15.8-9.3-14.26,32.2,9.89,59.75,9.89,59.75l0,0c.46,1,.8,2,.8,2,5.69,10.29,5.94,10.12,6.35,10s-.72-5-.21-5,4.09,5.91,4.36,5.36-2.4-6.41-2-6.5,3.77,5.64,4.52,5.14-3.18-6.66-2.42-6.81,4.6,6.27,5.21,5.7-3.63-7.75-5-10.06a.43.43,0,0,1,.4-.64c5.29.3,5.71,0,5.62-.57C276.76,696.73,270.41,693.77,266.31,691.9Z"/><path class="cls-7" d="M326.08,606.87c-10.95,39.41,2.27,51,2.32,51.34l-2,9.17s-27-17.54-9.87-64.25a2.34,2.34,0,0,1,3.18-1.42l5.11,2.37A2.34,2.34,0,0,1,326.08,606.87Z"/><path class="cls-11" d="M350,703.11s-.34-.87-.67-1.91h0l-.52-3.82c-.32-8.66-1.76-39.38-6.49-57.46-3.6,2.86-11.25,8.26-18.67,9.23,4.65,9.73,14.39,32.16,16.08,52.55-1.71,3.89-4,9.27-3.83,9.58.3.48.78.42,4.34-3.12a.41.41,0,0,1,.69.2c.5,2.48,2.15,10.24,2.8,10.25s-.51-7,.12-7.32,1.72,6.47,2.56,6.36-.37-6.32,0-6.49,2.13,5.64,2.66,5.87-.62-6.21-.27-6.54,2.62,3.85,3,3.7S352.41,714,350,703.11Z"/><path class="cls-12" d="M266.34,565.54s-1.59-29.3,31.06-31.23c0,0-1,28.78-26.56,31.58l-2-3.83Z"/><path class="cls-12" d="M297.4,534.31s26.49-1.49,27.89,30.94a7,7,0,0,0-3.35.64s-21-5.25-26.19-25.58Z"/><path class="cls-12" d="M260.33,836.55c-5.32.53-7.83-.63-8.92-2.23l-3.6,2.35a1.7,1.7,0,0,0,.91,3.13h23.43a1.5,1.5,0,0,0,1.49-1.5V832C272.14,833.52,268.59,835.72,260.33,836.55Z"/><path class="cls-12" d="M331.87,836.55c5.33.53,7.84-.63,8.92-2.23l3.61,2.35a1.7,1.7,0,0,1-.91,3.13H320.06a1.5,1.5,0,0,1-1.5-1.5V832C320.07,833.52,323.61,835.72,331.87,836.55Z"/><path class="cls-7" d="M837.5,828.19v9.55a1.42,1.42,0,0,0,1.42,1.42H861.2a1.62,1.62,0,0,0,.87-3l-12.5-8S844.66,831.79,837.5,828.19Z"/><path class="cls-11" d="M793.76,423.65a.45.45,0,0,1-.6-.5c.56-2.65,2.26-11,1.62-11.3s-2.47,7.08-3.24,7.17,1.07-7.11.19-7.36-2.34,6.38-2.74,6.41.32-6.47-.11-6.92-2,6.38-2.53,6.55-.94-4.92-1.38-4.93-.73-.09-3,11.66c0,0-.14,4.31-.9,5.32l1.7,3.46,5.25.18s11.43-10.34,11.33-11S798.77,421.68,793.76,423.65Z"/><path class="cls-11" d="M847.86,426.25a.45.45,0,0,0,.76-.17c.71-2.62,3-10.83,3.7-10.8s-1,7.42-.38,7.86,2.29-6.82,3.18-6.64-.82,6.75-.47,6.95,2.66-5.9,3.25-6.1-1.09,6.61-.74,7,3.08-3.95,3.48-3.76.69.26-2.65,11.75c0,0-1.85,3.89-1.63,5.14l-3.09,2.31-4.75-2.25s-5.46-14.4-5.09-14.91S844.29,422.22,847.86,426.25Z"/><polygon class="cls-11" points="806.09 520.35 806.17 540.45 786.65 537.44 789.91 514.84 806.09 520.35"/><path class="cls-15" d="M788.41,525.24l1.5-10.4,16.19,7.42v4C802.21,527.18,794.91,528,788.41,525.24Z"/><path class="cls-7" d="M770.82,827.13V837.6a1.56,1.56,0,0,1-1.56,1.56H744.74a1.77,1.77,0,0,1-1-3.27l13.75-8.76S762.94,831.07,770.82,827.13Z"/><path class="cls-12" d="M748.44,649.28c0-2.24-5.78,4.37-5.67,2.58,2.28-37.17,74.91-6,74.91-6l17.73,13,20,172.27s-10.86,3.15-18,.58L793.09,684.08,787.64,682S763.4,665.08,748.44,649.28Z"/><path class="cls-12" d="M742.68,653.37c0,.44,0,.88,0,1.34C742.64,654.25,742.66,653.81,742.68,653.37Z"/><path class="cls-12" d="M742.62,654.73c0,.47,0,.95,0,1.44C742.59,655.68,742.61,655.2,742.62,654.73Z"/><path class="cls-12" d="M742.57,656.36c0,.5,0,1,0,1.55C742.54,657.38,742.56,656.86,742.57,656.36Z"/><path class="cls-12" d="M742.77,651.86c0,.4,0,.82-.07,1.24C742.72,652.68,742.74,652.26,742.77,651.86Z"/><path class="cls-12" d="M742.78,643.41c15,15.8,44.86,38.58,44.86,38.58l5.45,2.09L787.64,682,770.79,831.13s-12,2.29-18.87-1.42C751.92,829.71,741.8,687.73,742.78,643.41Z"/><path class="cls-12" d="M855.42,831.13a46.42,46.42,0,0,1-9.91,1.56,46.42,46.42,0,0,0,9.91-1.56Z"/><path class="cls-12" d="M839.51,832.29c.48.09,1,.18,1.47.24C840.48,832.47,840,832.38,839.51,832.29Z"/><path class="cls-12" d="M845.51,832.69a28.07,28.07,0,0,1-3.78-.08A28.07,28.07,0,0,0,845.51,832.69Z"/><path class="cls-12" d="M835.41,658.86l2.85,24.59c-7.55,2.93-26,6-39.86-24.31-4.38-9.58-5.5-16.47-4.7-21.42a196.57,196.57,0,0,1,24,8.13Z"/><path class="cls-4" d="M768.77,558.51c.84,0,13.42-28.51,13.42-28.51,10.76,7.54,25.36,2.3,25.36,2.3s58.77,107.55,19.36,124.32S750.32,653,750.32,653s-8.38-21.81-8.38-22.64S767.93,558.51,768.77,558.51Z"/><path class="cls-16" d="M845.36,437.76s2.55,51-2.24,60.37c-15.86,31-35.57,34.17-35.57,34.17s-6.77,108.53-1.18,134.52c0,0,18.58,5.73,46-7.13,0,0-21-84.13-19.85-94.75,0,0,33.54-29.91,34.66-65.13s-8.1-66.53-8.1-66.53Z"/><path class="cls-16" d="M754.93,662.91s2.1-40.39,11.33-78.69S782.19,530,782.19,530c-12.37-13.63-10.32-25.95-9.23-41.93,1.26-18.45,19.29-55.35,19.29-55.35l-12.16-8c-58.28,70-26,125.78-26,125.78s-21.81,77.15-24.74,100.63A177.49,177.49,0,0,0,754.93,662.91Z"/><path class="cls-17" d="M831.94,564.82a12.8,12.8,0,0,1-2.35-2.23A23.73,23.73,0,0,1,825,552.5c.54,1.6,2,6.26,5,9.8a12,12,0,0,0,2.73,2.49l-.17.15c0,.07,0,.14,0,.22-.77.16-2.13.21-4.43-1a20.14,20.14,0,0,1-3.72-2.68,26.31,26.31,0,0,0,3.86,2.41A8.43,8.43,0,0,0,831.94,564.82Z"/><path class="cls-17" d="M754.54,550.28a12.58,12.58,0,0,0,2.66-2.45,28.36,28.36,0,0,0,5-9.8,23.67,23.67,0,0,1-4.63,10.1,12.83,12.83,0,0,1-2.35,2.23,5.6,5.6,0,0,0,1.64-.19,11,11,0,0,0,2.11-.79,25.44,25.44,0,0,0,3.86-2.4,20.22,20.22,0,0,1-3.72,2.67,11,11,0,0,1-2.15.9,4.54,4.54,0,0,1-2.38.12l-.45-.12Z"/><polygon class="cls-12" points="778.09 479.36 776.91 493.14 779.09 494.51 783.12 477.73 778.09 479.36"/><path class="cls-13" d="M781,491.72c.6,3.12-.94,6-3.44,6.52s-5-1.66-5.61-4.78.94-6,3.44-6.53S780.42,488.6,781,491.72Z"/><path class="cls-11" d="M777.44,504.47a45.75,45.75,0,0,1-.19-11.59c.08-.75.11-1.5.13-2.26A24.6,24.6,0,1,1,826.09,496a5.29,5.29,0,0,1,4.77.57c2.61,1.85,2.85,6,.53,9.25s-6.3,4.4-8.91,2.55a4.73,4.73,0,0,1-.94-.9c-3.57,11.57-15.07,18.75-26.64,16.23A22.65,22.65,0,0,1,777.44,504.47Z"/><path class="cls-12" d="M804.12,493.44a2.16,2.16,0,0,0,2,3,2.15,2.15,0,1,0-2-3Z"/><path class="cls-12" d="M785.85,490.7a2.15,2.15,0,1,0,1.95-1.34A2.15,2.15,0,0,0,785.85,490.7Z"/><path class="cls-13" d="M801.28,508.46a13.84,13.84,0,0,1-3.45,1.18,10.9,10.9,0,0,1-3.6.14,9.11,9.11,0,0,1-3.37-1.18,12.68,12.68,0,0,1-2.81-2.32,10,10,0,0,0,2.63,2.6,8.55,8.55,0,0,0,3.5,1.33,9.71,9.71,0,0,0,3.72-.25A10.69,10.69,0,0,0,801.28,508.46Z"/><path class="cls-12" d="M802.39,489.08a19.26,19.26,0,0,1,3.21-.34,10.49,10.49,0,0,1,3,.35,10,10,0,0,1,2.75,1.19c1.17.67,2,1.49,2.63,1.89a7.24,7.24,0,0,0-1.89-2.86,7,7,0,0,0-3.09-1.72,7.2,7.2,0,0,0-3.54-.06A6.67,6.67,0,0,0,802.39,489.08Z"/><path class="cls-12" d="M793.85,487.68a6.73,6.73,0,0,0-2.4-2.46,7.28,7.28,0,0,0-3.36-1.07,7,7,0,0,0-3.49.64,7.24,7.24,0,0,0-2.7,2.11A26.9,26.9,0,0,1,785,486a9.76,9.76,0,0,1,3-.25,10.51,10.51,0,0,1,2.94.62A20.13,20.13,0,0,1,793.85,487.68Z"/><path class="cls-13" d="M797.57,490.38a30.93,30.93,0,0,0-2.8,3,28.91,28.91,0,0,0-2.4,3.37,8.14,8.14,0,0,0-1.06,2.49c-.07.45,0,.89.72,1.63a9.77,9.77,0,0,0,1.62,1.34,12.93,12.93,0,0,0,1.8,1,22.94,22.94,0,0,1-2.92-2.81,4.28,4.28,0,0,1-.48-.74,1.63,1.63,0,0,1,.15-.76,12.64,12.64,0,0,1,.89-1.76c.68-1.15,1.45-2.28,2.21-3.41S796.83,491.55,797.57,490.38Z"/><path class="cls-12" d="M780.66,464.63s-7.25-1.39,1.67-5.76,30.8-6.92,42.23,2.87c0,0,3.85-4.93,7.3-2.77s-3.6,4.57-3.6,4.57,4.83.93,5.76,3.61c.69,2-2.26,1.4-3.85,1,2.63,1.09,10.34,8.37.32,28.28-1.77-.83-13.24-17.19-13.24-17.19s-23.06,7.58-18.85,1.29c0,0-26.87,6.76-20.36-5.42C778,475.06,768.14,473.57,780.66,464.63Z"/><path class="cls-12" d="M830.49,496.38a4.73,4.73,0,0,0-4.4-.34c-2.65,1-4.34,6.94-4.34,6.94s-8.7,7.13-4.46-23.92c4.17-30.51,9.94,5.07,9.94,5.07Z"/><path class="cls-7" d="M770.9,400l-3.76-.37a4,4,0,0,1,2.29-.46l94.27,9.27c4.93.49,8.58,4.43,8.15,8.8l-.49,5c-.43,4.37-4.78,7.52-9.71,7l-93.22-9.19Z"/><path class="cls-3" d="M863.45,421.45l.49-5c.43-4.37-3.22-8.31-8.15-8.79l2,.19c4.94.49,8.59,4.43,8.16,8.8l-.5,5c-.43,4.37-4.77,7.52-9.71,7l-2-.2C858.69,429,863,425.81,863.45,421.45Z"/><path class="cls-3" d="M841.37,419.28l.49-5c.43-4.37-3.22-8.31-8.15-8.8l2,.2c4.93.49,8.58,4.43,8.15,8.8l-.5,5c-.43,4.37-4.77,7.52-9.71,7l-2-.2C836.61,426.79,840.94,423.64,841.37,419.28Z"/><path class="cls-7" d="M824.48,404.57c4.72.46,8.21,4.23,7.8,8.41l-.56,5.68c-.41,4.18-4.57,7.19-9.28,6.73l-58.69-5.77.13-1.27.24,0,15,.22,4.05-10.19s-5.25-6.37-5.62-6.56-11.67-1.75-11.67-1.75l-.25,0,.13-1.26Z"/><path class="cls-4" d="M768.58,409.54c.61-6.13-2.68-9.45-2.68-9.45l57.26,5.63c4.33.43,7.54,3.88,7.16,7.72l-.43,4.38c-.38,3.84-4.2,6.61-8.53,6.18l-57.25-5.63S767.82,417.26,768.58,409.54Z"/><path class="cls-10" d="M830.32,413.44l-.43,4.38a6.44,6.44,0,0,1-.39,1.64c-1.52-4.37-4.83-8.77-11.75-10.76-16.15-4.65-51.85-8.61-51.85-8.61l57.26,5.63C827.49,406.15,830.7,409.6,830.32,413.44Z"/><path class="cls-5" d="M656.57,544.71l-3.89,8.67a1.42,1.42,0,0,0,.72,1.88l20.31,9.1a1.61,1.61,0,0,0,2-2.35l-7.86-12.24S661.64,550.91,656.57,544.71Z"/><path class="cls-5" d="M630.77,544.71l-3.88,8.67a1.43,1.43,0,0,0,.71,1.88l20.31,9.1a1.61,1.61,0,0,0,2-2.35l-7.86-12.24S635.84,550.91,630.77,544.71Z"/><path class="cls-12" d="M586.91,305.63l-2.15,13.54-4.57-18.05s6.4-3.1,6.68-2A50.6,50.6,0,0,1,586.91,305.63Z"/><polygon class="cls-11" points="550.62 334.78 548.65 358.19 569.31 357.2 566.93 336.47 550.62 334.78"/><path class="cls-13" d="M568.06,346.33l-1.13-9.86-16.31-1.69-.68,8.11C553.18,346.12,559,349.46,568.06,346.33Z"/><path class="cls-13" d="M580.73,319c-1.25,2.57-.59,5.46,1.47,6.45s4.73-.28,6-2.85.58-5.45-1.47-6.45S582,316.43,580.73,319Z"/><path class="cls-11" d="M583.72,320.89c.11-.67.26-1.34.42-2a22.08,22.08,0,1,0-43.49-6.58,4.76,4.76,0,0,0-4.27-.6c-2.69,1-3.85,4.54-2.6,7.9s4.45,5.27,7.14,4.27a4.21,4.21,0,0,0,1-.56c.42,10.85,8.73,19.74,19.34,20.23A19.74,19.74,0,0,0,575,338.82C580.14,335.08,582.72,327.13,583.72,320.89Z"/><path class="cls-13" d="M567.63,313.81c0,1.26,0,2.5.12,3.71a8.35,8.35,0,0,0,.68,3.28,3.18,3.18,0,0,1,.88,1.93,2.6,2.6,0,0,1-1,2,4.25,4.25,0,0,1-3.8.74,5.19,5.19,0,0,0,3.11-1.45,1.67,1.67,0,0,0,.46-1.26c-.06-.47-.2-.56-.76-1.34a4.86,4.86,0,0,1-.59-2,9.67,9.67,0,0,1,0-1.94A13.69,13.69,0,0,1,567.63,313.81Z"/><path class="cls-12" d="M560.3,315.17a1.93,1.93,0,1,1-1.52-1.67A1.93,1.93,0,0,1,560.3,315.17Z"/><path class="cls-12" d="M576.78,317a1.93,1.93,0,1,1-1.52-1.67A1.93,1.93,0,0,1,576.78,317Z"/><path class="cls-13" d="M557.08,328.53a13.25,13.25,0,0,0,1.59,1.2,12.84,12.84,0,0,0,1.72,1,12.05,12.05,0,0,0,3.73,1.15,10.22,10.22,0,0,0,3.89-.29,14.3,14.3,0,0,0,3.61-1.64,10.68,10.68,0,0,1-3.5,2,9.17,9.17,0,0,1-4.06.42,10.6,10.6,0,0,1-3.85-1.31A11.53,11.53,0,0,1,557.08,328.53Z"/><path class="cls-12" d="M562.73,311.13a18.86,18.86,0,0,0-2.82-.68,10.05,10.05,0,0,0-2.68-.06,9.23,9.23,0,0,0-2.57.68c-.64.21-2.2,1.12-2.6,1.3a6.1,6.1,0,0,1,2-2.34,6.33,6.33,0,0,1,3-1.15,6.55,6.55,0,0,1,3.17.43A5.86,5.86,0,0,1,562.73,311.13Z"/><path class="cls-12" d="M571.22,312.08a5.93,5.93,0,0,1,2.8-1.3,6.66,6.66,0,0,1,3.19.2,6.51,6.51,0,0,1,4.23,4.39c-.36-.25-1.71-1.45-2.3-1.77a8.83,8.83,0,0,0-2.39-1.17,9.93,9.93,0,0,0-2.64-.46A20.5,20.5,0,0,0,571.22,312.08Z"/><path class="cls-12" d="M562,444.6s-4.31,29.22,23.93,34.31,63.37,3.58,63.37,3.58l4.89,67.13,14.74.75s38-93.28-14.58-107.86l-47.22.23-19.44-1.38s-19.67-4.86-19.9-3.94S562.46,445.06,562,444.6Z"/><path class="cls-12" d="M536.05,444.75S531.74,474,560,479.07s63.37,3.57,63.37,3.57l4.89,67.13,14.74.75s38-93.27-14.58-107.85l-47.22.23-19.44-1.39s-19.67-4.86-19.9-3.93S536.51,445.21,536.05,444.75Z"/><path class="cls-7" d="M571.62,348.85s19.44,2.47,24.38,6.48,28.7,63,28.7,63L605,441.43l-42,.31s-31.48,17-51.23.93-9.57-71.91,1.85-83.94S545.39,347,545.39,347,563.9,360,571.62,348.85Z"/><path class="cls-17" d="M534,378.17a81.79,81.79,0,0,1,1.42,9.75c.17,1.63.24,3.27.34,4.91s.08,3.29.06,4.94a63.85,63.85,0,0,1-.81,9.85,32.59,32.59,0,0,1-2.86,9.43,49,49,0,0,0,1.88-9.56c.36-3.23.48-6.49.52-9.74s0-6.51-.11-9.77S534.14,381.45,534,378.17Z"/><path class="cls-17" d="M592.14,376c.89,4.78,1.83,9.54,2.78,14.3s2,9.49,3.14,14.19,2.4,9.39,3.93,14a67.11,67.11,0,0,0,2.62,6.74,26,26,0,0,0,3.73,6.19,23.48,23.48,0,0,1-4.29-5.91,54.81,54.81,0,0,1-3-6.69c-.88-2.28-1.63-4.6-2.34-6.93s-1.31-4.7-1.89-7.07-1.1-4.74-1.58-7.13-.91-4.78-1.3-7.18C593.16,385.69,592.54,380.86,592.14,376Z"/><path class="cls-4" d="M634.24,386.67c-3.6-5.59-33-15.08-33-15.08v9.46l29.95,10.47Z"/><polygon class="cls-17" points="632.12 386.29 597.96 370.54 597.96 376.65 631.28 388.68 632.12 386.29"/><polygon class="cls-4" points="630.22 386.29 594.16 372.65 594.16 383.19 629.86 388.68 630.22 386.29"/><path class="cls-17" d="M634.24,385.22s7-16.26,9.8-19.64c0,10.7-4.33,24.15-4.33,24.15Z"/><polygon class="cls-4" points="637.27 385.94 645.7 364.63 645.7 374.78 639.91 388.68 637.27 385.94"/><polygon class="cls-17" points="639.91 386.29 649.1 365.58 649.1 372.96 639.91 386.29"/><polygon class="cls-9" points="639.91 450.1 651.49 430.15 651.49 366.34 639.91 386.29 639.91 450.1"/><polygon class="cls-6" points="586.54 440.46 627.56 450.1 627.56 386.29 586.54 376.65 586.54 440.46"/><path class="cls-4" d="M627.56,386.29c3.61-1.73,11.18-1.12,12.35,0C639.29,389.94,628.48,390.66,627.56,386.29Z"/><path class="cls-5" d="M627.56,450.1c0,1.57,12.41,1.57,12.41,0V386.29c-1.26,1.86-11,1.81-12.41,0Z"/><path class="cls-11" d="M601.91,428.09c-.13-1-7.54-2.06-10.27-2.21-2.06-.1-15.76-.56-20.42-.77l.35,1.2-.07,5.29-.77,3.5c4.09.26,14.08.65,16.16,1.06a50.62,50.62,0,0,1,7.59,2.65s2-.46-.54-1.56a12.27,12.27,0,0,1-4.09-2.93c-.35-.39,0-1.08.29-1,6.93,1.82,7.65,2.12,7.65,2.12s8.15-.05,0-1.88c-4.86-1.1-6.6-1.73-7-2.28-.18-.23.15-1,.44-1,4.21-.26,11.76,1.23,9.7.25-1.69-.79-7-1.67-9.07-2-.13,0-.34-.79.23-.83C596.11,427.3,602,429,601.91,428.09Z"/><path class="cls-17" d="M529.22,416.24c1.71.42,3.39.9,5.11,1.25s3.42.71,5.13,1.07q5.16.93,10.36,1.66c3.46.45,6.93.87,10.41,1.2s7,.64,10.42.83l.46,0,.1.4a28,28,0,0,1,.64,3.46,29.22,29.22,0,0,1,.2,3.5,22.86,22.86,0,0,1-.3,3.5,16,16,0,0,1-1,3.37l0,.1-.07,0-3.81,2.56q-1.9,1.29-3.83,2.53c1.19-1,2.4-1.9,3.61-2.83l3.63-2.81-.11.15a15.76,15.76,0,0,0,.8-3.25,23.42,23.42,0,0,0,.16-3.35,31.3,31.3,0,0,0-.31-3.36,27,27,0,0,0-.67-3.29l.56.43c-1.81-.05-3.53-.17-5.29-.3s-3.51-.27-5.25-.45c-3.5-.36-7-.8-10.46-1.35s-6.92-1.24-10.34-2.05c-1.71-.43-3.41-.85-5.09-1.38S530.87,416.83,529.22,416.24Z"/><path class="cls-12" d="M587.33,292.82s6.48.21-.32-5.27-25.06-11.91-36.77-5.73c0,0-2.34-5-5.72-3.79s2.2,4.61,2.2,4.61-4.32-.13-5.64,2c-1,1.57,1.67,1.64,3.11,1.57-2.46.42-11.89,6.37-7.15,25.39,1.68-.37,11.27-14.27,11.27-14.27s21.92,12.18,19.75,2.49c0,0,22.71,14.18,19.49,2.47C587.55,302.27,596.33,302.91,587.33,292.82Z"/><path class="cls-12" d="M537,311.69a4.15,4.15,0,0,1,3.77.91c2,1.55,1.73,7,1.73,7s9.32,6,8.34-19.42c-1.05-27.05-7.77,2.17-7.77,2.17Z"/><path class="cls-12" d="M435.87,818.84l3.89,8.68a1.41,1.41,0,0,1-.72,1.87l-20.3,9.11a1.62,1.62,0,0,1-2-2.36l7.86-12.24S430.8,825,435.87,818.84Z"/><path class="cls-12" d="M462.18,817.81l3.89,8.67a1.42,1.42,0,0,1-.72,1.88l-20.3,9.1a1.61,1.61,0,0,1-2-2.35l7.85-12.24S457.11,824,462.18,817.81Z"/><path class="cls-7" d="M485.91,537s-22.12-3.73-29.55,21l9.17,13.72s19.22-7.39,19.29-8.11S485.91,537,485.91,537Z"/><path class="cls-7" d="M521.53,548.14s6.46,9.7,9.75,13.55c8.28,9.68,9.35,6.65,14.5,15,5.55,9-.07,14.62-3.26,17.21s2.15,12.18-3.81,17.55c-7.79,7-15,.4-20.36,4.34s-6.54,9.78-19.24,8.67-12.59-42.65-12.59-42.65,10.4-22,10.82-22.21Z"/><path class="cls-7" d="M456.36,558s-.76,7.62-3.28,12c-6.34,11-9.76,7.43-13.28,16.57-3.79,9.86,2.78,14.35,6.4,16.3s.14,12.36,7,16.54c9,5.46,14.82-2.39,20.82.48s8.23,8.4,20.51,5S499,580.61,499,580.61s-14.31-19.72-14.75-19.82S456.36,558,456.36,558Z"/><path class="cls-11" d="M488.47,607.2s21.21-3.9,31-3.57-5.91,25.69-5.91,25.69l-15.93.35s-9.76-10.91-9.12-12.18,0-9.59,0-9.59Z"/><path class="cls-11" d="M507.38,587l5.6,17s-4.88,10.07-19.79,5.73c0,0,1.7-3.52-.58-10.76C490.27,591.51,507.38,587,507.38,587Z"/><path class="cls-15" d="M507.38,587l2.63,7.93c-1.57,5.8-6.64,9.75-16.22,11a22.81,22.81,0,0,0-1.18-7C490.27,591.51,507.38,587,507.38,587Z"/><path class="cls-13" d="M473.25,574.53c1.22,2.75.41,5.77-1.8,6.74s-5-.48-6.18-3.24-.41-5.77,1.8-6.74S472,571.77,473.25,574.53Z"/><path class="cls-11" d="M472.64,587.05A43.06,43.06,0,0,1,470,576.39c-.09-.71-.22-1.41-.36-2.11a23.29,23.29,0,0,1,20.42-27.81A23.31,23.31,0,0,1,515.78,569a5,5,0,0,1,4.52-.47c2.8,1.16,3.89,4.93,2.44,8.43s-4.9,5.39-7.69,4.23a4.22,4.22,0,0,1-1.06-.64c-.86,11.44-10,20.49-21.18,20.6A21.42,21.42,0,0,1,472.64,587.05Z"/><path class="cls-13" d="M487.27,569.55a14.16,14.16,0,0,1,.74,3.93,10.9,10.9,0,0,1-.07,2,5.39,5.39,0,0,1-.7,2.09c-.51.65-.78.87-.86,1.39a1.81,1.81,0,0,0,.45,1.38,5.55,5.55,0,0,0,3.24,1.63,4.53,4.53,0,0,1-4-.95,2.69,2.69,0,0,1-.92-2.17,3.35,3.35,0,0,1,1-2,4.74,4.74,0,0,0,.58-1.59,18.09,18.09,0,0,0,.27-1.86C487.14,572.19,487.19,570.88,487.27,569.55Z"/><path class="cls-12" d="M494.94,571.28a2,2,0,1,0,1.67-1.71A2.07,2.07,0,0,0,494.94,571.28Z"/><path class="cls-12" d="M477.49,572.6a2,2,0,1,0,1.67-1.7A2,2,0,0,0,477.49,572.6Z"/><path class="cls-18" d="M495.28,587.06a6.84,6.84,0,0,0-5.64.75s-3-1.85-5.29-.08a5.61,5.61,0,0,0,5.94,4.11A5,5,0,0,0,495.28,587.06Z"/><path class="cls-13" d="M497.83,585.48a14.61,14.61,0,0,1-1.73,1.22,14.21,14.21,0,0,1-1.85,1,12.63,12.63,0,0,1-4,1.07,10.68,10.68,0,0,1-4.08-.46,14.72,14.72,0,0,1-3.74-1.87,12.64,12.64,0,0,0,1.69,1.3,11.11,11.11,0,0,0,1.92,1,9.88,9.88,0,0,0,2.09.54,11.25,11.25,0,0,0,2.17.06,11.37,11.37,0,0,0,4.12-1.23A12.25,12.25,0,0,0,497.83,585.48Z"/><path class="cls-7" d="M492.54,566.92a20.75,20.75,0,0,1,3-.61,10.62,10.62,0,0,1,2.82,0,9.82,9.82,0,0,1,2.69.82c.67.24,2.28,1.27,2.7,1.47a6.84,6.84,0,0,0-5.15-3.87,6.9,6.9,0,0,0-3.35.32A6.28,6.28,0,0,0,492.54,566.92Z"/><path class="cls-7" d="M483.55,567.6a6.25,6.25,0,0,0-2.9-1.49,7,7,0,0,0-3.37.09,6.57,6.57,0,0,0-2.92,1.7,6.5,6.5,0,0,0-1.72,2.77,30,30,0,0,1,2.5-1.78,9.13,9.13,0,0,1,2.56-1.14,10.35,10.35,0,0,1,2.8-.39A20.48,20.48,0,0,1,483.55,567.6Z"/><path class="cls-11" d="M525.36,711s6.26,29.43-22.12,36.42-64.2,7.7-64.2,7.7l-.67,68.57-14.94,1.71s-44.58-92.4,7.91-110.59l48-2.8L499,709.3s19.69-6.2,20-5.28S524.92,711.45,525.36,711Z"/><path class="cls-11" d="M551.76,709.44s6.25,29.44-22.13,36.43-64.2,7.7-64.2,7.7l-.66,68.56-14.94,1.71s-44.58-92.39,7.9-110.59l48-2.8,19.68-2.66s19.69-6.2,20-5.27S551.31,709.94,551.76,709.44Z"/><path class="cls-9" d="M449.71,706c-23.93.36-45.76,14.11-53.53,40.79s-25.47,54.22-23.79,54c37.54,21,49.34-.09,75.29,6.15s35.14,3.42,35.14,3.42c-7.51-37.67-17.39-56.71-17.39-56.71,2.18.39,65.85,1.33,81.58-16.11,4.41-4.89,7.79-11,7.11-26.06C552.87,683.43,456.65,705.86,449.71,706Z"/><path class="cls-14" d="M456.84,755.53c.82-.15,1.64-.29,2.45-.48s1.6-.4,2.39-.64c.4-.12.8-.26,1.19-.4a8.22,8.22,0,0,1-1.2-.34,10.64,10.64,0,0,1-2.2-1.13,12.2,12.2,0,0,1-1.83-1.61A12.42,12.42,0,0,1,456.2,749l.81.89c.3.27.57.56.87.81a12.15,12.15,0,0,0,1.89,1.4,11.47,11.47,0,0,0,2.1,1,8.11,8.11,0,0,0,2.24.45l1.32.05-1.17.55a15.78,15.78,0,0,1-2.42.84,23.45,23.45,0,0,1-2.46.53c-.83.13-1.67.25-2.5.31s-1.67.11-2.51.1C455.2,755.78,456,755.68,456.84,755.53Z"/><path class="cls-11" d="M464.36,648.52s-1.93,48.1-7.34,55.63l29.75-6.76V645Z"/><path class="cls-9" d="M476.38,655.09s4.8,12.1,5.55,18.53c1.87,16-.16,27.24-3.47,36.32-4.63,12.75,31.25,7.9,32.11,7.92,37.91.9,37.56-.64,37.56-.64l6-4.86c-.84-15.58-3-29.05-2.66-42.94l.34-14.33-1.74-14.49-53.66-4.22Z"/><path class="cls-19" d="M458,665.78c3.28-5.1,30.12-13.75,30.12-13.75v8.63l-27.32,9.55Z"/><path class="cls-4" d="M458,665.78c3.28-5.1,30.12-13.75,30.12-13.75v8.63l-27.32,9.55Z"/><polygon class="cls-17" points="459.94 665.44 491.11 651.06 491.11 656.64 460.71 667.61 459.94 665.44"/><polygon class="cls-4" points="461.67 665.44 494.58 652.99 494.58 662.61 462.01 667.61 461.67 665.44"/><path class="cls-17" d="M458,664.45s-6.34-14.83-8.94-17.91c0,9.76,3.95,22,3.95,22Z"/><polygon class="cls-4" points="455.24 665.11 447.55 645.68 447.55 654.93 452.84 667.61 455.24 665.11"/><polygon class="cls-7" points="452.84 723.65 445.14 705.96 445.14 647.74 452.84 665.44 452.84 723.65"/><polygon class="cls-7" points="501.52 714.86 464.11 723.65 464.11 665.44 501.52 656.64 501.52 714.86"/><path class="cls-4" d="M464.11,665.44c-3.3-1.58-10.2-1-11.27,0C453.4,668.77,463.27,669.42,464.11,665.44Z"/><path class="cls-7" d="M464.11,723.65c0,1.43-11.33,1.43-11.33,0V665.44c1.15,1.69,10.05,1.64,11.33,0Z"/><path class="cls-11" d="M563.1,642.71l-25.47,11.8s-2,32.59-3.21,34c-2.23,2.6-24.81,10.08-36.71,12.27a11.14,11.14,0,0,1-5.72-.45c-5.9-2.09-16.34-5.84-18-6.39-2.58-.88-9.88-2.6-10.35-1.74s5.68,1.4,9.28,3.19c.51.26,0,.9-.09.87-2-.46-7.31-1.61-9.17-1.49-2.28.15,5.29,1.55,9.1,3.34.27.13.29,1,0,1.13-.6.35-2.46.3-7.38-.47-8.21-1.29-.65,1.76-.65,1.76s.78,0,7.89.85c.26,0,.36.82-.11,1.06a12.31,12.31,0,0,1-4.88,1.21c-2.77.08-1.08,1.25-1.08,1.25a51.42,51.42,0,0,1,8,.34c2.08.39,11.51,3.71,15.4,5l.48-.6c5.4,1.26,55.16,4.89,61.2-9.87C562.82,672.64,563.1,642.71,563.1,642.71Z"/><path class="cls-9" d="M488.47,607.2s14.42,16.83,31-3.57c0,0,18.08-1.48,31.41,8s21.3,30.72,21.3,30.72S553,655.09,537.6,655.09l-36.16-13-25.06,13s-11.63-.77-21.48-5.8C454.9,649.29,456.6,615.5,488.47,607.2Z"/><path class="cls-12" d="M533.2,635.91c.62,2.09,1.18,4.19,1.74,6.3,1,4.13,2,8.07,2.69,12.3a23.11,23.11,0,0,0,4.07-.31c7-1.24,11.54-3.19,17.73-5.73,9.29-4.23,8-3.82,12.71-6.13a120.86,120.86,0,0,1-12.32,7c-5.43,2.52-10.62,4.84-17.92,6.13a17.39,17.39,0,0,1-5.33.2c-.47-3.1-1-6.27-2.49-13.23L532.7,636l-1.42-6.37C532,631.73,532.58,633.82,533.2,635.91Z"/><path class="cls-12" d="M475.89,639.82a35.93,35.93,0,0,0-.61,7.72,50.62,50.62,0,0,0,2,8.29l-.6.23a56.93,56.93,0,0,1-2.42-8.44,27.64,27.64,0,0,1,.35-8,41.33,41.33,0,0,1,2.18-7.68,40,40,0,0,1,3.5-7.14c-.95,2.47-1.8,5-2.57,7.46A64.93,64.93,0,0,0,475.89,639.82Z"/><path class="cls-7" d="M515.78,569s-24.77-6-36.6-22.8c0,0-.2-15.32,22.53-11.85C523.8,537.75,529,559.25,515.78,569Z"/></g></g></svg>